<?xml version="1.0" encoding="UTF-8"?>
<svg viewBox="0 0 150 127.63419" xmlns="http://www.w3.org/2000/svg">
 <defs>
  <filter id="a" x="-.1091" y="-.13332" width="1.2182" height="1.2666">
   <feGaussianBlur stdDeviation="1.45469"/>
  </filter>
 </defs>
 <g transform="matrix(3.8479 0 0 3.8479 -1448.3 -758.14)">
  <path d="m381.88 200.52c-1.108 0-2 0.8229-2 1.8438v16.812c0 1.0208 0.892 1.8438 2 1.8438h1.1875c-0.44149 1.9459-1.3931 3.8212-2.3125 5.6875 2.3645-1.6274 4.148-3.4 5.6875-5.6875h23.438c1.108 0 2-0.8229 2-1.8438v-16.812c0-1.0208-0.892-1.8438-2-1.8438h-28z" fill="#7a7a7a" filter="url(#a)"/>
  <path d="m380.62 198.38c-1.108 0-2 0.8229-2 1.8438v16.812c0 1.0208 0.892 1.8438 2 1.8438h1.1875c-0.44149 1.9459-1.3931 3.8212-2.3125 5.6875 2.3645-1.6274 4.148-3.4 5.6875-5.6875h23.437c1.108 0 2-0.8229 2-1.8438v-16.812c0-1.0208-0.892-1.8438-2-1.8438h-28z" fill="#fff" stroke="#000" stroke-linecap="round" stroke-linejoin="round" stroke-width=".25988"/>
 </g>
</svg>
