<?xml version="1.0" encoding="UTF-8"?>
<svg viewBox="0 0 500 500" xmlns="http://www.w3.org/2000/svg">
 <defs>
  <filter id="d">
   <feGaussianBlur stdDeviation="2.309128"/>
  </filter>
  <linearGradient id="e" x1=".5001" x2=".5001" y1="7.5e-5" y2=".69532">
   <stop stop-color="#bdd8ff" offset="0"/>
   <stop stop-color="#fff" offset="1"/>
  </linearGradient>
  <linearGradient id="f" x1=".32942" x2=".90278" y1="-.007355" y2=".70275">
   <stop stop-color="#fff" offset="0"/>
   <stop stop-color="#a8cbff" offset="1"/>
  </linearGradient>
 </defs>
 <g transform="matrix(.9295 0 0 .9295 15.287 18.818)">
  <path d="m248.49 35.812c-116.8-3.5-209.94 68.11-209.94 151.92 0 53.064 43.896 94.623 97.428 128.27 53.532 33.65 12.122 9.0758-5.6809 32.482s65.066-16.403 100.88-17.844c35.811-1.4414-26.202 6.8113 42.312 4.3113s183.23-81.408 175.23-163.22c-8-81.815-83.429-132.42-200.23-135.92z" fill="#050f99" filter="url(#d)"/>
  <path d="m242.65 31.633c-115.8 0-209.94 68.11-209.94 151.92 0 53.064 60.264 105.51 96.928 125.77 36.664 20.262 1.6216 31.076-0.68089 42.982s49.69-13.445 91.377-17.844c7.3111 0.55859 14.798 0.81134 22.312 0.81134 115.8 0 209.73-67.908 209.73-151.72 0-83.815-93.929-151.92-209.73-151.92z" fill="url(#e)" stroke="url(#f)" stroke-width="6.491"/>
 </g>
</svg>
