<svg version="1.2" baseProfile="tiny-ps" xmlns="http://www.w3.org/2000/svg" viewBox="0 0 230 452" width="230" height="452">
	<title>undraw_Mention_re_k5xc-svg</title>
	<style>
		tspan { white-space:pre }
		.shp0 { fill: #ffb8b8 } 
		.shp1 { fill: #2f2e41 } 
		.shp2 { fill: #71dc9a } 
		.shp3 { fill: #3f3d56 } 
		.shp4 { fill: #cccccc } 
	</style>
	<path id="Layer" class="shp0" d="M168.15 445.59L180.41 445.59L186.24 398.31L168.14 398.31L168.15 445.59L168.15 445.59Z" />
	<path id="Layer" class="shp1" d="M204.05 456.98L165.52 456.98L165.52 442.09L189.16 442.09C191.12 442.09 193.05 442.47 194.86 443.22C196.67 443.97 198.31 445.07 199.69 446.45C201.07 447.83 202.17 449.47 202.92 451.28C203.66 453.09 204.05 455.02 204.05 456.98L204.05 456.98Z" />
	<path id="Layer" class="shp0" d="M55 438.56L67.01 441.04L82.3 395.92L64.58 392.25L55 438.56L55 438.56Z" />
	<path id="Layer" class="shp1" d="M87.86 456.98L50.13 449.18L53.14 434.6L76.29 439.38C78.21 439.78 80.03 440.55 81.64 441.65C83.26 442.75 84.65 444.15 85.72 445.79C86.79 447.42 87.53 449.25 87.9 451.17C88.27 453.09 88.25 455.06 87.86 456.98L87.86 456.98C384.38 1191.62 384.38 1191.62 384.38 1191.62L384.38 1191.62L384.38 1191.62L384.38 1191.62L87.86 456.98Z" />
	<path id="Layer" class="shp0" d="M88.26 286.41C87.22 285.37 86.43 284.11 85.94 282.72C85.44 281.34 85.26 279.86 85.39 278.4C85.53 276.94 85.99 275.52 86.73 274.25C87.48 272.98 88.49 271.89 89.7 271.06L80.19 236.61L97.85 242.34L104.18 274.17C105.44 276.3 105.89 278.82 105.42 281.25C104.96 283.68 103.62 285.85 101.65 287.36C99.69 288.87 97.24 289.61 94.77 289.43C92.31 289.26 89.99 288.18 88.26 286.41Z" />
	<path id="Layer" class="shp1" d="M164.56 428.25C164.03 428.26 163.51 428.16 163.01 427.98C162.51 427.8 162.05 427.53 161.64 427.18C161.24 426.84 160.9 426.43 160.64 425.96C160.38 425.5 160.2 425 160.12 424.47L137.27 298.57C137.22 298.25 137.07 297.95 136.84 297.73C136.6 297.5 136.3 297.36 135.98 297.31C135.66 297.27 135.33 297.34 135.05 297.5C134.76 297.66 134.54 297.91 134.41 298.21L83.51 415.97C83.29 416.49 82.97 416.95 82.58 417.35C82.18 417.74 81.72 418.06 81.21 418.29C80.7 418.52 80.15 418.65 79.59 418.68C79.04 418.71 78.48 418.63 77.95 418.46L60.07 412.45C59.48 412.25 58.95 411.94 58.49 411.53C58.03 411.12 57.66 410.61 57.41 410.06C57.15 409.5 57.01 408.89 57 408.28C56.99 407.66 57.1 407.05 57.33 406.48L81.94 346.2L102.49 255.24L102.63 255.13C103.03 254.83 142.55 225.33 169.56 248.93C194.27 270.52 189.67 393.92 188.5 418.43C188.48 418.91 188.38 419.39 188.21 419.84C188.04 420.29 187.79 420.71 187.49 421.08C187.18 421.45 186.81 421.77 186.41 422.02C186 422.28 185.55 422.47 185.08 422.58L165.66 428.12C165.57 428.14 165.48 428.16 165.39 428.18C165.3 428.2 165.21 428.21 165.11 428.22C165.02 428.23 164.93 428.24 164.84 428.25C164.75 428.25 164.66 428.25 164.56 428.25Z" />
	<path id="Layer" class="shp0" d="M125.83 148.56C112.25 148.56 101.27 137.58 101.27 124C101.27 110.42 112.25 99.44 125.83 99.44C139.42 99.44 150.4 110.42 150.4 124C150.4 137.58 139.42 148.56 125.83 148.56Z" />
	<path id="Layer" class="shp0" d="M173.59 275.41C172.56 274.37 171.76 273.11 171.27 271.72C170.77 270.34 170.59 268.86 170.73 267.4C170.86 265.94 171.32 264.52 172.07 263.25C172.81 261.98 173.82 260.89 175.03 260.06L165.52 225.61L183.18 231.34L189.51 263.17C190.78 265.3 191.22 267.82 190.75 270.25C190.29 272.68 188.95 274.85 186.99 276.36C185.02 277.87 182.58 278.61 180.11 278.43C177.64 278.26 175.32 277.18 173.59 275.41L173.59 275.41Z" />
	<path id="Layer" class="shp2" d="M98.61 265.59C98.53 265.59 98.44 265.59 98.36 265.58C98.27 265.57 98.19 265.56 98.11 265.54C98.02 265.53 97.94 265.51 97.86 265.48C97.78 265.46 97.7 265.43 97.62 265.4C87.25 261.18 95.52 178.88 95.87 175.38L95.91 175.23C96.17 174.65 96.43 174.07 96.69 173.51C97.96 170.69 99.67 168.08 101.74 165.78C103.82 163.49 106.24 161.53 108.93 159.98C111.61 158.44 114.52 157.32 117.54 156.68C120.57 156.03 123.68 155.86 126.76 156.18C129.89 156.42 132.97 157.14 135.88 158.32C138.79 159.5 141.5 161.12 143.91 163.12C146.33 165.13 148.42 167.5 150.11 170.14C151.81 172.78 153.08 175.67 153.89 178.71L173.11 249.12C173.32 249.87 173.33 250.66 173.14 251.41C172.95 252.16 172.56 252.85 172.03 253.41C171.49 253.98 170.82 254.39 170.08 254.61C169.34 254.84 168.55 254.87 167.79 254.7C152.84 251.36 116.6 245.43 103.09 262.47C101.43 264.56 99.96 265.59 98.61 265.59Z" />
	<path id="Layer" class="shp2" d="M173.09 258.83C172.96 258.83 172.84 258.83 172.72 258.82C172.59 258.81 172.47 258.79 172.35 258.77C172.23 258.75 172.11 258.73 171.99 258.7C171.87 258.67 171.75 258.63 171.64 258.59C171.35 258.5 171.07 258.37 170.81 258.22C170.55 258.07 170.3 257.89 170.08 257.69C169.85 257.49 169.65 257.26 169.47 257.02C169.29 256.78 169.13 256.52 169.01 256.24L152.28 220.58L136 173.73C135.66 172.73 135.46 171.68 135.41 170.63C135.36 169.57 135.46 168.51 135.71 167.48C135.96 166.45 136.36 165.46 136.89 164.54C137.42 163.62 138.08 162.79 138.85 162.05L138.85 162.05C140.12 160.84 141.67 159.96 143.36 159.46C145.05 158.97 146.83 158.88 148.56 159.21C150.29 159.54 151.91 160.28 153.3 161.36C154.68 162.45 155.79 163.85 156.53 165.44L178.19 212.23L195.08 242.75C195.37 243.28 195.56 243.86 195.62 244.46C195.68 245.05 195.63 245.66 195.45 246.23C195.28 246.81 194.99 247.34 194.61 247.81C194.23 248.27 193.76 248.65 193.22 248.93L175.16 258.32C175 258.41 174.83 258.48 174.66 258.54C174.5 258.61 174.33 258.66 174.15 258.7C173.98 258.75 173.8 258.78 173.62 258.8C173.44 258.82 173.27 258.83 173.09 258.83L173.09 258.83Z" />
	<path id="Layer" class="shp2" d="M100 267.6C99.96 267.6 99.92 267.6 99.88 267.6C99.84 267.6 99.8 267.59 99.76 267.59C99.72 267.59 99.68 267.59 99.64 267.58C99.6 267.58 99.56 267.58 99.52 267.57L79.27 265.42C78.66 265.36 78.08 265.18 77.55 264.88C77.02 264.59 76.55 264.19 76.18 263.71C75.81 263.23 75.54 262.68 75.39 262.09C75.23 261.5 75.2 260.89 75.29 260.29L81.04 221.33L93.35 173.29C93.62 172.26 94.03 171.27 94.57 170.36C95.11 169.45 95.78 168.63 96.56 167.91C97.34 167.19 98.22 166.58 99.17 166.11C100.12 165.64 101.13 165.31 102.17 165.12L102.17 165.12C103.91 164.82 105.69 164.93 107.37 165.45C109.05 165.97 110.58 166.88 111.84 168.12C113.09 169.35 114.04 170.86 114.6 172.53C115.16 174.2 115.31 175.97 115.04 177.71L107.25 228.68L104.48 263.46C104.43 264.01 104.28 264.56 104.04 265.06C103.79 265.57 103.46 266.02 103.05 266.4C102.64 266.78 102.16 267.08 101.64 267.29C101.12 267.49 100.56 267.6 100 267.6L100 267.6Z" />
	<path id="Layer" class="shp1" d="M129.71 110.79L150.13 109.3C150.47 107.01 150.43 104.68 150 102.4C149.57 100.12 148.77 97.93 147.63 95.91C146.48 93.9 145.01 92.09 143.27 90.56C141.53 89.03 139.54 87.8 137.4 86.92C128.7 83.61 117.9 87.28 114.56 92.55C105.64 91.78 96.86 95.16 90.77 101.71C84.67 108.27 81.94 117.27 83.36 126.11C84.79 134.95 90.21 142.63 98.05 146.95C105.9 151.26 115.29 151.71 123.51 148.18C115.09 136.35 119.42 117.56 129.71 110.79Z" />
	<path id="Layer" class="shp1" d="M92.59 99.52C86.26 93.73 78.52 89.1 70 88.08C61.48 87.06 52.18 90.18 47.27 97.22C42.37 104.26 43.22 115.2 50.12 120.3C52.95 122.4 55.1 125.28 56.29 128.6C57.49 131.91 57.67 135.51 56.83 138.92C55.98 142.34 54.14 145.44 51.54 147.81C48.93 150.18 45.69 151.73 42.2 152.26C29.54 154.19 20 167.24 20.95 180.02C21.9 192.8 32.37 203.93 44.85 206.8C57.34 209.67 71 204.74 79.72 195.35C88.43 185.96 92.33 172.63 91.34 159.85C90.35 147.08 84.74 134.91 76.68 124.95C74.49 122.25 76.14 117.96 78.95 115.92C81.76 113.87 85.34 113.3 88.63 112.17C91.93 111.05 95.32 108.93 96.08 105.54C96.84 102.14 92.99 98.18 92.59 99.52Z" />
	<path id="Layer" fill-rule="evenodd" class="shp3" d="M321.2 175C318.97 175 316.76 174.56 314.7 173.7C312.64 172.85 310.77 171.59 309.19 170.02C307.61 168.44 306.36 166.56 305.5 164.5C304.65 162.44 304.21 160.23 304.2 158L304.2 17C304.21 14.77 304.65 12.56 305.5 10.5C306.36 8.44 307.61 6.56 309.19 4.98C310.77 3.41 312.64 2.15 314.7 1.3C316.76 0.44 318.97 0 321.2 0L462.2 0C464.44 0 466.65 0.44 468.71 1.3C470.77 2.15 472.64 3.41 474.22 4.98C475.8 6.56 477.05 8.44 477.91 10.5C478.76 12.56 479.2 14.77 479.2 17L479.2 158C479.2 160.23 478.76 162.44 477.91 164.5C477.05 166.56 475.8 168.44 474.22 170.02C472.64 171.59 470.77 172.85 468.71 173.7C466.65 174.56 464.44 175 462.2 175L321.2 175ZM321.2 2C319.24 2 317.29 2.39 315.47 3.15C313.65 3.9 312 5.01 310.6 6.4C309.21 7.79 308.11 9.44 307.35 11.26C306.6 13.08 306.21 15.03 306.2 17L306.2 158C306.21 159.97 306.6 161.92 307.35 163.74C308.11 165.56 309.21 167.21 310.6 168.6C312 169.99 313.65 171.1 315.47 171.85C317.29 172.61 319.24 173 321.2 173L462.2 173C464.17 173 466.12 172.61 467.94 171.85C469.76 171.1 471.41 169.99 472.81 168.6C474.2 167.21 475.3 165.56 476.06 163.74C476.81 161.92 477.2 159.97 477.2 158L477.2 17C477.2 15.03 476.81 13.08 476.06 11.26C475.3 9.44 474.2 7.79 472.81 6.4C471.41 5.01 469.76 3.9 467.94 3.15C466.12 2.39 464.17 2 462.2 2L321.2 2Z" />
	<path id="Layer" fill-rule="evenodd" class="shp2" d="M387.18 114.15C385.74 114.16 384.29 114.02 382.88 113.73C381.46 113.45 380.08 113.01 378.76 112.43C377.43 111.86 376.17 111.14 375 110.3C373.82 109.46 372.74 108.5 371.76 107.44C367.2 102.45 364.96 95.22 365.63 87.6C365.77 85.91 366.05 84.24 366.47 82.61C366.89 80.97 367.44 79.37 368.13 77.83C368.81 76.28 369.63 74.8 370.56 73.39C371.5 71.99 372.55 70.66 373.71 69.43C374.82 68.23 376.05 67.14 377.38 66.19C378.71 65.23 380.14 64.42 381.63 63.76C383.13 63.09 384.69 62.58 386.29 62.23C387.89 61.89 389.52 61.7 391.16 61.69C392.67 61.68 394.19 61.83 395.67 62.14C397.16 62.45 398.6 62.92 399.99 63.53C401.38 64.14 402.7 64.89 403.93 65.78C405.16 66.67 406.29 67.68 407.31 68.81C408.47 70.12 409.49 71.55 410.36 73.07C411.23 74.59 411.93 76.2 412.47 77.87C413 79.54 413.37 81.26 413.55 83C413.73 84.74 413.73 86.5 413.55 88.24L413.55 88.24C412.87 95.99 409.86 102.57 404.85 107.27C403.66 108.37 402.38 109.36 401.01 110.22C399.63 111.08 398.18 111.81 396.67 112.4C395.16 112.99 393.6 113.43 392.01 113.72C390.42 114.02 388.8 114.16 387.18 114.15ZM372.94 88.24C372.45 93.82 373.99 99.01 377.17 102.49C377.8 103.18 378.5 103.8 379.27 104.35C380.03 104.9 380.85 105.36 381.71 105.73C382.57 106.1 383.47 106.38 384.39 106.56C385.31 106.75 386.24 106.83 387.18 106.81C395.83 106.81 405.08 100.87 406.25 87.6L406.25 87.6C406.38 86.36 406.39 85.11 406.27 83.87C406.15 82.63 405.9 81.41 405.52 80.22C405.15 79.03 404.66 77.89 404.05 76.8C403.44 75.72 402.72 74.7 401.9 73.76C401.22 73.01 400.47 72.34 399.65 71.75C398.84 71.16 397.96 70.65 397.03 70.25C396.11 69.84 395.15 69.53 394.16 69.32C393.17 69.12 392.17 69.02 391.16 69.02C381.89 69.02 373.89 77.46 372.94 88.24Z" />
	<path id="Layer" class="shp2" d="M422.03 114.24C421.83 114.24 421.62 114.24 421.42 114.23C421.22 114.22 421.01 114.21 420.81 114.19C420.61 114.18 420.4 114.15 420.2 114.13C420 114.1 419.8 114.07 419.59 114.04C418.54 113.85 417.5 113.56 416.51 113.17C415.51 112.78 414.55 112.29 413.66 111.71C412.76 111.12 411.92 110.45 411.16 109.7C410.4 108.94 409.71 108.12 409.12 107.22C406.51 103.35 405.41 98.15 405.94 92.19L408.33 65.05C408.42 64.08 408.88 63.19 409.63 62.56C410.37 61.94 411.34 61.64 412.3 61.72C413.27 61.81 414.16 62.27 414.79 63.02C415.41 63.76 415.72 64.72 415.63 65.69L413.24 92.84C412.56 100.62 415.41 105.85 420.87 106.81C422.75 107.15 426.12 106.63 429.44 104.08C432.84 101.48 437.09 96.1 438.04 85.26C439.14 72.83 435.96 62.15 428.85 54.38C421.4 46.25 410.12 41.94 396.22 41.94C370.69 41.94 348.1 62.71 345.86 88.24C345.75 89.44 345.69 90.64 345.68 91.84C345.67 93.04 345.71 94.25 345.79 95.45C345.88 96.65 346.01 97.84 346.19 99.03C346.38 100.22 346.61 101.4 346.88 102.57C347.11 103.52 346.96 104.52 346.45 105.35C345.94 106.17 345.12 106.77 344.18 107C343.23 107.22 342.24 107.07 341.41 106.56C340.58 106.05 339.98 105.24 339.76 104.29C339.43 102.93 339.16 101.55 338.95 100.17C338.74 98.78 338.58 97.39 338.48 95.99C338.38 94.6 338.33 93.19 338.35 91.79C338.36 90.39 338.43 88.99 338.56 87.6C339.28 80.48 341.29 73.55 344.5 67.15C347.71 60.75 352.05 54.99 357.32 50.15C362.59 45.3 368.7 41.46 375.35 38.81C381.99 36.15 389.07 34.73 396.22 34.61C412.23 34.61 425.38 39.74 434.26 49.43C442.67 58.62 446.61 71.57 445.35 85.91C444.16 99.41 438.47 106.41 433.9 109.9C433.07 110.57 432.17 111.17 431.24 111.7C430.3 112.22 429.33 112.67 428.32 113.04C427.31 113.4 426.28 113.69 425.23 113.89C424.17 114.1 423.11 114.21 422.03 114.24Z" />
	<path id="Layer" class="shp2" d="M387.47 141.22C384.5 141.25 381.52 141 378.59 140.49C375.65 139.98 372.77 139.21 369.98 138.18C367.18 137.15 364.49 135.87 361.92 134.36C359.36 132.84 356.93 131.1 354.68 129.15C353.95 128.51 353.5 127.6 353.44 126.63C353.38 125.66 353.7 124.71 354.35 123.98C354.99 123.24 355.9 122.8 356.87 122.74C357.84 122.68 358.79 123 359.52 123.65C361.45 125.3 363.51 126.78 365.7 128.07C367.89 129.36 370.18 130.44 372.57 131.32C374.95 132.19 377.4 132.85 379.9 133.28C382.4 133.71 384.94 133.91 387.47 133.89C395.7 133.89 400.67 133.34 408.42 130.09C409.31 129.71 410.32 129.71 411.22 130.07C412.12 130.44 412.84 131.15 413.22 132.05C413.59 132.94 413.6 133.95 413.23 134.85C412.86 135.75 412.15 136.47 411.26 136.85C402.4 140.57 396.53 141.22 387.47 141.22Z" />
	<path id="Layer" class="shp4" d="M327 457.92L-54 457.92C-54.27 457.92 -54.52 457.81 -54.71 457.62C-54.89 457.44 -55 457.18 -55 456.92C-55 456.65 -54.89 456.4 -54.71 456.21C-54.52 456.02 -54.27 455.92 -54 455.92L327 455.92C327.27 455.92 327.52 456.02 327.71 456.21C327.89 456.4 328 456.65 328 456.92C328 457.18 327.89 457.44 327.71 457.62C327.52 457.81 327.27 457.92 327 457.92Z" />
</svg>